<svg id="Laag_1" 
    data-name="Laag 1" 
    xmlns="http://www.w3.org/2000/svg" 
    xmlns:xlink="http://www.w3.org/1999/xlink" 
    viewBox="0 0 1280 1024">
    <defs>
        <style>.cls-1,.cls-3{fill:#12abdb;}.cls-2,.cls-4{fill:#0070ad;}.cls-3,.cls-4,.cls-5{fill-rule:evenodd;}.cls-5{fill:#fff;}</style>
    </defs>
    <title>Capman Launcher</title>
    <rect class="cls-1" width="1280" height="1024"/>
    <path class="cls-2" d="M364.4,968.46C144.89,589.75,464.17,470.15,983,250.9,1148,181.2,1236.28,90.83,1280,0H0V1024H299.88Q331.56,997.24,364.4,968.46Z"/>
    <path class="cls-3" d="M490.17,138l19.9-9.76h-19.9V95.41l9.5-4.61-9.5-3.09V77.6h-13.7l-1.05-5.88-4.07,5.88H453.52v8.22c-1.53-1.74-3-3.3-4.34-4.66l-3.56-3.56h-5.17l-4.66-18.32L429.47,77.6H418.32V98c-.21-.47-.41-.94-.61-1.41-1.79-4.07-3.65-8.15-5.53-12.1l-3.29-6.93h-8.71L398,68l-4.54,9.58h-11.6l-3.33,6.82c-1.93,4-3.82,8.09-5.64,12.28q-.93,2.16-1.86,4.39l0-.22c-.46-4.66-1-9-1.54-12.87l-1.5-10.4h-3.15L359.42,57,354.54,77.6h-3.78l-4.39-9.49L342.7,77.6h-3.82l-3.45,6.32c-1.05,1.92-2.26,4.28-3.59,7-.27.55-.53,1.11-.81,1.68l-.8-1.68c-1.33-2.73-2.54-5.09-3.59-7l-3.46-6.31h-7.8V53L305.32,77.6H293.59l-.88,6.08c-.19-.12-.37-.26-.55-.38h0a35,35,0,0,0-9.43-4.25V64.63L277,77.75a65.86,65.86,0,0,0-10.5-.79c-2.53,0-5.5.12-8.83.35-1.61.11-3.19.28-4.76.47L247,70.42v8.32l-9.22,1.8V98l-.61-1.41c-1.79-4.08-3.65-8.15-5.52-12.1l-3.3-6.93H225l3.12-17.37L217.73,77.6H201.26l-3.32,6.82q-1.62,3.3-3.18,6.74l1.3-3.65-8.35-5.14c-.76-.47-1.75-1-3-1.66a37.15,37.15,0,0,0-5.37-2.11c-1.41-.44-3-.84-4.64-1.19l-1.22-10-5.57,9c-1.19-.08-2.39-.13-3.63-.13A44.55,44.55,0,0,0,148.77,79a36.32,36.32,0,0,0-18.39,14.77l-20.19-7.54,15,19.64a47.82,47.82,0,0,0-1.35,11.5c0,9.82,2.24,18.11,6.59,24.77l-10.66,12.76,18.2-4.46c6.68,5.23,15.27,7.89,25.63,7.89a58.61,58.61,0,0,0,11.8-1.12H182l2.91,8.45,3-8.45h20.73l2.68-8.49c.36-1.14.74-2.3,1.13-3.49h4.33c.41,1.2.8,2.38,1.16,3.53l2.7,8.45h21l-1.41,20.06L255,157.2h19.49v-19a44.32,44.32,0,0,0,13.63-3.73c-.2,3.49-.38,6.83-.53,10L287,157.2h15.1L307,167.34,312,157.2h11.67l.21-7h13.85l.21,7h19.46l13.25,18.46-2.17-18.46h20.72l2.68-8.49c.35-1.14.73-2.3,1.13-3.49h4.33c.4,1.2.79,2.38,1.16,3.53l2.7,8.45h21l3.24,22.85,10.12-22.85h19.34v-9.86c.72,1.23,1.42,2.45,2.11,3.68l3.48,6.18h10.18l-1.38,11.7,10.25-11.7h10.64ZM173.62,121l-2.13,1a9.34,9.34,0,0,1-1.11.36,23.77,23.77,0,0,1-2.56.5,21.4,21.4,0,0,1-3.11.19,6.25,6.25,0,0,1-2.27-.28,1.59,1.59,0,0,1-.42-.25,3.1,3.1,0,0,1-.5-1.2,17.15,17.15,0,0,1-.47-4.17,11.47,11.47,0,0,1,.48-3.83,3.8,3.8,0,0,1,.63-1.19.65.65,0,0,1,.28-.2,4.92,4.92,0,0,1,1.64-.28,16.33,16.33,0,0,1,4.4.5,18.51,18.51,0,0,1,3.56,1.35l8.35,4.43Z"/>
    <path class="cls-4" d="M462.14,86.22V111c-2.1-3-4.26-5.93-6.41-8.75s-4.45-5.73-6.6-8.31-4.23-4.88-6.05-6.7l-1-1H426.94v58.42l-.26-.74c-2.08-5.94-4.08-11.52-6-16.59s-3.73-9.89-5.53-14.37-3.59-8.77-5.37-12.84-3.61-8-5.42-11.87l-1-2H387.21l-1,2c-1.88,3.86-3.73,7.87-5.48,11.92s-3.54,8.39-5.32,12.82-3.63,9.27-5.52,14.37c-1.51,4.09-3.13,8.6-4.82,13.4-.17-3.15-.34-6.39-.55-9.83q-.44-7.44-1-14.84c-.34-4.94-.75-9.75-1.2-14.32s-1-8.76-1.5-12.48l-.43-3H344l-1,1.83c-1,1.8-2.12,4-3.4,6.66s-2.59,5.43-4,8.46-2.73,6.14-4.08,9.3L331,113.7l-.52-1.23c-1.34-3.17-2.7-6.26-4.07-9.3s-2.7-5.85-4-8.46-2.42-4.86-3.4-6.66l-1-1.83h-17l-.44,3c-.54,3.71-1,7.91-1.5,12.49s-.86,9.38-1.21,14.32-.66,9.88-1,14.84-.54,9.64-.75,14l-.18,3.69h19.24l.11-3.42q.22-8,.63-17.52c.07-1.49.14-3,.21-4.51.31.72.61,1.43.91,2.15q1.74,4.08,3.34,7.8l2.72,6.34.91,2.14h13.36l.91-2.15c.74-1.75,1.65-3.86,2.71-6.33s2.18-5.08,3.33-7.8c.31-.72.61-1.43.91-2.15.08,1.51.15,3,.22,4.51.26,6.33.47,12.16.64,17.53l.1,3.41h36.57l.78-2.46q.88-2.82,1.93-5.82l1.28-3.69h16.59l1.3,3.69c.69,2,1.35,3.94,2,5.83l.78,2.45h38.83v-29.8c2.35,3.07,4.63,6.24,6.81,9.49,4.09,6.08,7.93,12.31,11.43,18.52l1,1.79h16V86.22Zm-69.93,33.44c.26-.69.53-1.38.79-2.06q1.17-3,2.13-5.56,1,2.5,2.06,5.47l.78,2.15Z"/>
    <path class="cls-4" d="M287.42,90.51c-5-3.32-11.89-4.93-20.93-4.93-2.33,0-5.1.11-8.23.33a73.76,73.76,0,0,0-9,1.17l-2.85.56v57l-.26-.74c-2.08-5.94-4.08-11.52-6-16.59s-3.74-9.89-5.53-14.37-3.59-8.77-5.38-12.84-3.6-8-5.42-11.87l-1-2H206.65l-1,2c-1.88,3.86-3.72,7.87-5.47,11.92s-3.55,8.39-5.32,12.82-3.63,9.27-5.52,14.37c-1.39,3.75-2.86,7.83-4.4,12.18l-4.22-12.27-3.54,1.63c-.67.31-1.42.65-2.26,1a16.59,16.59,0,0,1-2.42.82,33.7,33.7,0,0,1-3.46.68,31.32,31.32,0,0,1-4.36.28,14,14,0,0,1-5.87-1.08,9.38,9.38,0,0,1-3.61-2.76,11.65,11.65,0,0,1-2.07-4.4,26,26,0,0,1-.73-6.28,19.47,19.47,0,0,1,1-6.89,11.89,11.89,0,0,1,2.59-4.23,9.16,9.16,0,0,1,3.54-2.24,13.67,13.67,0,0,1,4.47-.76,24.91,24.91,0,0,1,6.74.83,26.75,26.75,0,0,1,5.26,2l3.59,1.91,5.93-16.58-2.43-1.5c-.49-.3-1.27-.72-2.35-1.27a28.32,28.32,0,0,0-4.11-1.6,44.08,44.08,0,0,0-5.46-1.3,39.05,39.05,0,0,0-7-.58,36.06,36.06,0,0,0-12.48,2.13,28.34,28.34,0,0,0-10.2,6.43,30.12,30.12,0,0,0-6.7,10.3,36.33,36.33,0,0,0-2.4,13.56c0,10.09,2.69,18.07,8,23.73s13.16,8.61,23.12,8.61a46.85,46.85,0,0,0,12-1.4,35.21,35.21,0,0,0,7.21-2.65l-1,2.93h20.47l.78-2.46q.89-2.82,1.93-5.82l1.28-3.69h16.6l1.29,3.69c.69,2,1.35,3.94,2,5.83l.79,2.45h39V130.06h.39c9,0,16.07-1.69,21.11-5,5.49-3.64,8.28-9.47,8.28-17.35S292.88,94.09,287.42,90.51Zm-75.78,29.15c.27-.69.53-1.38.79-2.06q1.17-3,2.14-5.56,1,2.5,2.05,5.47l.78,2.15Zm62.69-8.6c-1.14.61-3.46,1.34-8.08,1.34h-.39v-9.14a31.52,31.52,0,0,1,5.82.3,7.07,7.07,0,0,1,2.56.83,2.86,2.86,0,0,1,1.11,1.1,4.62,4.62,0,0,1,.39,2.13C275.74,110.3,274.75,110.83,274.33,111.06Z"/>
</svg>